<svg id="Layer_1" data-name="Layer 1" xmlns="http://www.w3.org/2000/svg" viewBox="0 0 402.9 83.69"><title>Boomplay logo - Brandlogos.net</title><path d="M182.55,384a42.11,42.11,0,1,1,42.11,41.85A42,42,0,0,1,182.55,384" transform="translate(-182.55 -342.15)" style="fill:aqua"/><path d="M232.62,381.94A10.85,10.85,0,0,0,243.56,371a11,11,0,0,0-11-10.9c-5,0-8.91,0-15.58,0a1.87,1.87,0,0,0-1.83,1.44l-.94,4.11a.27.27,0,0,0,.23.32l11,1.44,2.9.39c2.83.37,4.79,2.36,4.73,5.08a4.93,4.93,0,0,1-3.84,4.72,5,5,0,0,1-6.2-4.76,5,5,0,0,1,.74-2.68l-10-1.31a.27.27,0,0,0-.3.21l-3.76,16.51a.27.27,0,0,0,.23.32l15.34,2,1.65.22c3.3.44,5.91,2.85,5.81,6.17a6.06,6.06,0,0,1-12.11-.08,5.92,5.92,0,0,1,1.28-3.78l-12.67-1.65a.27.27,0,0,0-.3.21l-3,13a4.82,4.82,0,0,0,4.7,5.86h21.82a13,13,0,1,0,.14-25.93Z" transform="translate(-182.55 -342.15)" style="fill:#121212"/><path d="M502.56,393.59h0c0,.09,0,.18,0,.27s-.05.32-.08.47a4.11,4.11,0,0,0-.07.72,2.37,2.37,0,0,0,2.6,2.7,6.26,6.26,0,0,0,1.7-.27A8.69,8.69,0,0,0,508,397l-1.9,8.77a18.42,18.42,0,0,1-3.46,1.27,20.6,20.6,0,0,1-5.26.58,9.24,9.24,0,0,1-6-1.73,6.15,6.15,0,0,1-2-5c0-.46,0-.93.06-1.41a9.5,9.5,0,0,1,.25-1.46l8-36.61a1.66,1.66,0,0,1,1.62-1.3h10.49ZM302.54,379a5.34,5.34,0,0,0,5-4.3,4.05,4.05,0,0,0-.72-3.33A3.58,3.58,0,0,0,304,369.9l-7.75,0L294.4,379Zm-3.17,19.27a5.89,5.89,0,0,0,5.57-4.76,4.44,4.44,0,0,0-.79-3.66,3.92,3.92,0,0,0-3-1.56l-8.76,0-2.07,10Zm4.94-38c9.42.07,14.74,4.91,14.74,10.95a12.52,12.52,0,0,1-9.38,11.84h0c6.76.9,9.73,7.24,8.6,12.73-1.9,9.25-9.88,11.58-20.07,11.91h-.67l-1.08,0H278.19a1.34,1.34,0,0,1-1.3-1.62l9.43-44.52a1.68,1.68,0,0,1,1.63-1.33h16.36Zm165.17,37.18c3.41-.25,6.65-3.79,7.21-7.9a6.76,6.76,0,0,0-1.5-5.65,4.58,4.58,0,0,0-3.75-1.43c-3.41.25-6.65,3.79-7.21,7.9a6.8,6.8,0,0,0,1.5,5.66,4.57,4.57,0,0,0,3.38,1.43h.38Zm8.18-24.59a11,11,0,0,1,6.22,1.73,11.4,11.4,0,0,1,4,4.71,16.09,16.09,0,0,1,1.42,6.92,22.27,22.27,0,0,1-1.49,8.09,23.32,23.32,0,0,1-4,6.79,19.07,19.07,0,0,1-5.81,4.63,14.78,14.78,0,0,1-6.77,1.67,10.53,10.53,0,0,1-5.66-1.41,6.61,6.61,0,0,1-2.92-4.06l-.25-1-4.29,19.37h-12l10-45.63a1.71,1.71,0,0,1,1.67-1.34h9l-1.26,5.85.62-.75a16.45,16.45,0,0,1,5.12-4.18A14.12,14.12,0,0,1,477.66,372.86Zm58.06,16.6c-.56,4.08-3.78,7.61-7.19,7.86h-.38a4.55,4.55,0,0,1-3.36-1.43,6.73,6.73,0,0,1-1.5-5.63c.56-4.08,3.79-7.6,7.19-7.86a4.58,4.58,0,0,1,3.74,1.42A6.71,6.71,0,0,1,535.72,389.46Zm11.58,6.71a1.31,1.31,0,0,1-1.22-.16c-.48-.39-.59-1.21-.31-2.44l4.17-18.7h-9.7l-.8,3.92-.32-.41a16.5,16.5,0,0,0-4.81-4.12,13.65,13.65,0,0,0-5.78-1.4,15.31,15.31,0,0,0-7,1.66,19.94,19.94,0,0,0-5.89,4.57,21.5,21.5,0,0,0-4.05,6.71,22.73,22.73,0,0,0-1.46,8.11,15.93,15.93,0,0,0,1.45,6.92,11.18,11.18,0,0,0,4.11,4.68,11.72,11.72,0,0,0,6.39,1.69,15.73,15.73,0,0,0,11.94-5.78l.42-.55s-.59,2.84,1.2,4.56c1.12,1.06,3.22,1.16,4.54,1.12a10,10,0,0,0,5.1-1.55Zm-209,1.39c3.44-.25,6.7-3.81,7.27-7.93a6.82,6.82,0,0,0-1.51-5.68,4.63,4.63,0,0,0-3.78-1.43c-3.44.25-6.7,3.81-7.27,7.93a6.8,6.8,0,0,0,1.51,5.68,4.61,4.61,0,0,0,3.4,1.44Zm4.26-24.71a17.71,17.71,0,0,1,8.75,1.88,11.52,11.52,0,0,1,4.79,5,16.31,16.31,0,0,1,1.52,7.08,20.05,20.05,0,0,1-1.49,7.63,20.08,20.08,0,0,1-11.06,11.07,23.38,23.38,0,0,1-9.06,1.67,17.48,17.48,0,0,1-8.71-1.91,11.61,11.61,0,0,1-4.83-5.1,16.38,16.38,0,0,1-1.52-7.05,20.06,20.06,0,0,1,1.49-7.63,20.43,20.43,0,0,1,4.28-6.53,20,20,0,0,1,6.78-4.5A23.72,23.72,0,0,1,342.6,372.86Zm39.7,17c-.57,4.12-3.83,7.68-7.27,7.93h-.38a4.61,4.61,0,0,1-3.4-1.44,6.81,6.81,0,0,1-1.51-5.68c.57-4.12,3.83-7.68,7.27-7.93a4.63,4.63,0,0,1,3.78,1.43A6.82,6.82,0,0,1,382.31,389.84Zm10.52-10.07a11.45,11.45,0,0,0-4.79-5,17.62,17.62,0,0,0-8.74-1.88,23.89,23.89,0,0,0-9.07,1.64,20,20,0,0,0-6.78,4.51,20.47,20.47,0,0,0-4.28,6.53,20.17,20.17,0,0,0-1.49,7.63,16.35,16.35,0,0,0,1.51,7,11.58,11.58,0,0,0,4.83,5.1,17.43,17.43,0,0,0,8.71,1.92,23.34,23.34,0,0,0,9.06-1.67,20.08,20.08,0,0,0,11.07-11.07,20.05,20.05,0,0,0,1.5-7.63A16.22,16.22,0,0,0,392.83,379.77Zm171.8,13.57c4.9-9.35,9.06-19.17,9.6-20.48h11.22c-1.73,3.36-15.37,29.84-21.62,38.88-6.7,9.69-18.6,8.69-20.46,8.47l1.92-9.06a12.11,12.11,0,0,0,7.39-1.65h0a14.8,14.8,0,0,0,3.36-3.21l.06-.08-4.44-33.33h11.09l1.49,21.21Zm-114-11.65c.07-.76.1-1.33.1-1.7a9.94,9.94,0,0,0-.61-3.51,5.18,5.18,0,0,0-2.2-2.61c-1.27-.79-3.23-1.12-5.84-1a13.08,13.08,0,0,0-2,.25,18.05,18.05,0,0,0-5.91,2.35,15.11,15.11,0,0,0-3.57,3.07l-.37.43,0-.56a7.05,7.05,0,0,0-.83-2.77,4.89,4.89,0,0,0-2.26-2,10.6,10.6,0,0,0-4.5-.77,18.54,18.54,0,0,0-7.11,1.41,14.64,14.64,0,0,0-5.67,4.09l-.63.74,1.26-5.73H401a1.67,1.67,0,0,0-1.62,1.29l-7,31.8h12.07l4.12-18.76c.68-2.58,2.9-4.59,5.12-4.61h0a3.13,3.13,0,0,1,2.44,1.11,4.39,4.39,0,0,1,.83,3.5h0L417,388l-4,18.42h11.95L429,387.67c.67-2.58,2.89-4.59,5.12-4.61h0a3.12,3.12,0,0,1,2.44,1.11,4.34,4.34,0,0,1,.83,3.5h0l-.07.35-4,18.42h12l4.83-21.8A25.27,25.27,0,0,0,450.62,381.69Z" transform="translate(-182.55 -342.15)" style="fill:aqua"/></svg>