<svg width="152" height="37" viewBox="0 0 152 37" fill="none" xmlns="http://www.w3.org/2000/svg">
<path d="M92.1151 15.837C90.0536 15.837 88.2435 16.774 87.5395 18.2534L87.3384 18.5986L87.0367 16.1329H83.2154V36.5H87.2881V27.4753L87.5395 27.9192C88.2938 29.3986 90.1039 30.3356 92.1151 30.3356C96.0873 30.3356 99.0539 27.2288 99.0539 23.0863C99.0539 18.9438 96.0873 15.837 92.1151 15.837ZM91.3609 26.5384C89.3496 26.5384 87.7909 25.0589 87.7909 23.037C87.7909 21.0151 89.2994 19.5356 91.3609 19.5356C93.4224 19.5356 94.9811 21.0644 94.9811 23.037C94.9811 25.0589 93.4224 26.5384 91.3609 26.5384ZM99.8081 25.7H103.881C104.032 26.5384 105.088 27.0315 106.546 27.0315C107.451 27.0315 108.457 26.7849 108.457 26.0452C108.457 25.2562 107.702 25.0589 105.54 24.4671C105.239 24.3685 104.937 24.3192 104.585 24.2205C101.568 23.3822 100.21 22.0507 100.21 19.9795C100.21 17.9575 102.171 15.7877 105.792 15.7877C109.261 15.7877 111.725 17.563 111.876 20.1767H107.803C107.702 19.289 106.596 19.0425 105.942 19.0425C105.138 19.0425 104.283 19.3384 104.283 19.9795C104.283 20.5219 104.786 20.7192 106.697 21.311C107.149 21.4589 107.652 21.6068 108.255 21.8041C111.121 22.6918 112.529 24.1219 112.529 26.1438C112.529 29.0041 109.462 30.2863 106.445 30.2863C102.372 30.3356 99.959 28.6589 99.8081 25.7ZM143.502 24.4671V30.0397H139.43V16.1329H143.251L143.452 17.6123L143.653 17.4151C144.609 16.3795 145.564 15.837 146.57 15.837C147.173 15.837 147.726 16.0342 148.128 16.3301L147.575 19.8315C147.223 19.6836 146.72 19.5356 146.268 19.5356C144.458 19.5849 143.502 21.311 143.502 24.4671ZM123.139 19.8315H119.719V30.0397H115.647V19.8315H113.233V16.0836H115.647V11.8918H119.719V16.0836H123.139V19.8315ZM137.821 23.2836C137.821 18.9932 134.854 15.837 130.731 15.837C126.608 15.837 123.641 18.8452 123.641 22.9877C123.641 27.2288 126.759 30.3356 130.982 30.3356C134.854 30.3356 137.117 27.6726 137.519 25.7493L133.999 25.3548C133.346 26.2918 132.24 26.7849 130.982 26.7849C128.67 26.7849 127.764 25.5027 127.664 24.3685V24.2205H137.821V23.2836ZM127.664 21.6068V21.4589C127.764 20.226 129.021 19.3384 130.681 19.3384C132.541 19.3384 133.647 20.4233 133.698 21.4589V21.6068H127.664ZM77.1816 16.1329L76.8799 18.5986L76.6788 18.2534C75.9246 16.774 74.1647 15.837 72.1032 15.837C68.131 15.837 65.1644 18.9438 65.1644 23.0863C65.1644 27.2288 68.131 30.3356 72.1032 30.3356C74.1145 30.3356 75.9246 29.3986 76.6788 27.9192L76.8799 27.574L77.1816 30.0397H81.003V16.1329H77.1816ZM72.8574 26.5384C70.7959 26.5384 69.2372 25.0589 69.2372 23.037C69.2372 21.0151 70.7959 19.5356 72.8574 19.5356C74.8687 19.5356 76.4274 21.0644 76.4274 23.037C76.4274 25.0589 74.8687 26.5384 72.8574 26.5384ZM150.642 27.9192C150.642 27.426 150.29 27.0808 149.788 27.0808H148.933V29.4479H149.385V28.7082H149.687L150.14 29.4479H150.693L150.19 28.6589C150.441 28.5603 150.642 28.3137 150.642 27.9192ZM149.788 28.3137H149.385V27.574H149.788C149.938 27.574 150.19 27.6233 150.19 27.9192C150.19 28.2644 149.888 28.3137 149.788 28.3137ZM149.737 26.0945C148.48 26.0945 147.475 27.0808 147.475 28.3137C147.475 29.5466 148.48 30.5329 149.737 30.5329C150.994 30.5329 152 29.5466 152 28.3137C152 27.1301 150.994 26.0945 149.737 26.0945ZM149.737 30.089C148.732 30.089 147.927 29.3 147.927 28.3137C147.927 27.3274 148.732 26.5384 149.737 26.5384C150.743 26.5384 151.547 27.3274 151.547 28.3137C151.547 29.3 150.693 30.089 149.737 30.089ZM59.3318 30.0397L49.7784 16.9712V30.0397H45.7056V10.4123H49.8286L59.4324 23.4808V10.4123H63.5051V30.0397H59.3318ZM32.9342 6.51644C32.5822 6.51644 32.2302 6.51644 31.8783 6.56575H31.828L31.7777 6.51644C28.8111 2.76849 24.135 0.5 19.308 0.5C14.481 0.5 9.75455 2.76849 6.83824 6.56575L6.78796 6.61507H6.73768C6.38571 6.56575 6.03374 6.56575 5.68177 6.56575H3.4694V10.4123L3.41912 10.4616C1.35759 11.3986 0 13.4699 0 15.7384C0 18.0068 1.35759 20.0781 3.41912 21.0151H3.51968V21.1137C3.56996 29.5959 10.6596 36.5 19.308 36.5C27.9563 36.5 35.046 29.5959 35.0963 21.1137V21.0151L35.1465 20.9658C37.2081 19.9795 38.5657 17.9082 38.5657 15.689C38.5657 13.4205 37.2081 11.3493 35.1465 10.4123L35.0963 10.363V6.51644H32.9342ZM10.9613 7.79863C13.1737 5.62877 16.1905 4.39589 19.308 4.39589C22.4254 4.39589 25.4423 5.62877 27.6546 7.79863L27.7552 7.89726L27.6044 7.99589C27.001 8.3411 26.4479 8.6863 25.8948 9.08082L25.8445 9.13014L25.7942 9.08082C24.3361 8.3411 22.0232 7.50274 19.3583 7.50274C16.6934 7.50274 14.3804 8.3411 12.9223 9.08082L12.872 9.13014L12.8217 9.08082C12.2686 8.6863 11.6652 8.29178 11.1121 7.99589L10.8105 7.89726L10.9613 7.79863ZM30.7721 20.9658C30.7721 27.1795 25.5931 32.2589 19.2577 32.2589C12.9223 32.2589 7.79358 27.1795 7.79358 20.9658V11.2014L7.94443 11.2507C9.95567 11.7438 11.8664 13.9137 12.3189 14.4562C12.8217 13.9137 15.1849 11.7931 19.308 11.7931C23.431 11.7931 25.7942 13.963 26.2971 14.4562C26.7496 13.9137 28.61 11.7438 30.6715 11.2507L30.8224 11.2014V20.9658H30.7721Z" fill="#181E40"></path>
</svg>