<?xml version="1.0" encoding="UTF-8"?>
<!-- Generator: Adobe Illustrator 23.0.1, SVG Export Plug-In . SVG Version: 6.00 Build 0)  -->
<svg version="1.1" id="Livello_1" xmlns="http://www.w3.org/2000/svg" xmlns:xlink="http://www.w3.org/1999/xlink" x="0px" y="0px" viewBox="0 0 1943.3 500" enable-background="new 0 0 1943.3 500" xml:space="preserve">
<g>
	<path fill="#FF0000" d="M697.5,78.1c-8.2-30.8-32.2-54.8-63-63.2C579,0,356.2,0,356.2,0S133.4,0,77.9,14.9   c-30.8,8.3-54.8,32.4-63,63.2C0,133.7,0,250,0,250s0,116.2,14.9,171.9c8.2,30.8,32.2,54.8,63,63.1C133.4,500,356.2,500,356.2,500   s222.8,0,278.3-14.9c30.8-8.3,54.8-32.4,63-63.2c14.9-55.7,14.9-171.9,14.9-171.9S712.3,133.8,697.5,78.1z"/>
	<polygon fill="#FFFFFF" points="284.9,357.2 470,250.1 284.9,142.8  "/>
	<path fill="#282828" d="M1025.7,193.9c-12.7,64.9-22.4,144.1-27.5,176.7h-3.6c-4-33.7-13.8-112.4-27-176.2L935.1,35.6h-99.3v428.5   h61.6V110.9l6.1,33l62.6,320.2h61.6l61.6-320.2l6.6-33.1v353.4h61.6V35.6h-100.3L1025.7,193.9L1025.7,193.9z M1324.2,399.8   c-5.6,11.8-17.8,19.9-30.1,19.9c-14.3,0-19.9-11.3-19.9-38.8V151.1h-70.3V385c0,57.7,18.8,84.3,60.6,84.3   c28.5,0,51.4-12.8,67.3-43.4h1.5l6.1,38.3h55V151h-70.3L1324.2,399.8L1324.2,399.8L1324.2,399.8z M1530.5,274.7   c-22.9-16.9-37.2-28.1-37.2-52.6c0-17.3,8.1-27.1,27.5-27.1c19.9,0,26.5,13.8,27,60.8l59.1-2.5c4.6-76.1-20.4-107.8-85.1-107.8   c-60.1,0-89.7,27.1-89.7,82.7c0,50.6,24.4,73.6,64.1,103.7c34.1,26.6,54,41.4,54,62.8c0,16.3-10.2,27.6-28,27.6   c-20.9,0-33.1-19.9-30-54.6l-59.6,1c-9.1,64.9,16.8,102.6,86.1,102.6c60.6,0,92.2-28.1,92.2-84.2   C1611,336,1585.5,315.6,1530.5,274.7z M1649.7,151.1h67.3v313.1h-67.3V151.1z M1683.8,27.5c-26,0-38.2,9.7-38.2,43.4   c0,34.7,12.2,43.4,38.2,43.4c26.5,0,38.2-8.7,38.2-43.4C1722,38.7,1710.3,27.5,1683.8,27.5z M1943.1,351.3l-61.6-3.1   c0,55.1-6.1,73-27,73s-24.4-19.9-24.4-84.8v-60.8c0-62.8,4-82.7,25-82.7c19.3,0,24.4,18.9,24.4,77.1l61.1-4   c4-48.5-2-81.7-20.9-100.6c-13.8-13.8-34.6-20.4-63.7-20.4c-68.3,0-96.3,36.8-96.3,139.9v43.9c0,106.2,23.9,140.4,93.7,140.4   c29.6,0,49.9-6.1,63.7-19.4C1937,431.4,1944.6,399.8,1943.1,351.3L1943.1,351.3z"/>
</g>
</svg>